<?xml version="1.0" encoding="utf-8"?>
<!-- Generator: Adobe Illustrator 24.1.1, SVG Export Plug-In . SVG Version: 6.00 Build 0)  -->
<svg version="1.1" id="图层_1" xmlns="http://www.w3.org/2000/svg" xmlns:xlink="http://www.w3.org/1999/xlink" x="0px" y="0px"
	 viewBox="0 0 200 200" style="enable-background:new 0 0 200 200;" xml:space="preserve">
<style type="text/css">
	.st0{fill:#2B313D;}
</style>
<path class="st0" d="M100,16.3c46.2,0,83.7,37.5,83.7,83.7c0,46.2-37.5,83.7-83.7,83.7S16.3,146.2,16.3,100
	C16.3,53.8,53.8,16.3,100,16.3L100,16.3z M100,32.3c-37.4,0-67.7,30.3-67.7,67.7c0,37.4,30.3,67.7,67.7,67.7
	c37.4,0,67.7-30.3,67.7-67.7S137.4,32.3,100,32.3L100,32.3z M70,83.2l0.1,0.1l30,32.1l29.8-32c3-3.2,7.9-3.4,11.2-0.5l0.1,0.1
	c3.2,3,3.4,7.9,0.5,11.2l-0.1,0.1L106,132.6c-3.1,3.4-8.4,3.4-11.6,0.2l-0.1-0.1L58.4,94.3c-3-3.2-2.8-8.3,0.4-11.3
	C62,80,67,80.1,70,83.2L70,83.2z"/>
</svg>
