<?xml version="1.0" encoding="utf-8"?>
<!-- Generator: Adobe Illustrator 24.1.1, SVG Export Plug-In . SVG Version: 6.00 Build 0)  -->
<svg version="1.1" id="图层_1" xmlns="http://www.w3.org/2000/svg" xmlns:xlink="http://www.w3.org/1999/xlink" x="0px" y="0px"
	 viewBox="0 0 200 200" style="enable-background:new 0 0 200 200;" xml:space="preserve">
<path d="M192.9,75.4l-44.5-47.6l-4-1.8l-88.9,0l-4,1.8L7.1,75.4c-2.1,2.3-2.2,6,0,8.3L96,181.6c1,1.2,2.5,1.8,4,1.8
	c1.5,0,3-0.7,4-1.8L193,83.7C195,81.4,195,77.7,192.9,75.4z M177.9,76.3h-31l-35.8-38.4h31L177.9,76.3z M57.9,38h31.3L53.3,76.3
	H22.1L57.9,38z M26.7,88.2h29l4-1.7l40.5-43.4l40.5,43.4l4,1.7h28.8L100,168.9L26.7,88.2z"/>
</svg>
