<?xml version="1.0" encoding="utf-8"?>
<!-- Generator: Adobe Illustrator 24.1.1, SVG Export Plug-In . SVG Version: 6.00 Build 0)  -->
<svg version="1.1" id="图层_1" xmlns="http://www.w3.org/2000/svg" xmlns:xlink="http://www.w3.org/1999/xlink" x="0px" y="0px"
	 viewBox="0 0 200 200" style="enable-background:new 0 0 200 200;" xml:space="preserve">
<style type="text/css">
	.st0{fill:#39B54A;}
</style>
<path class="st0" d="M156.6,43.4c-31.3-31.3-81.9-31.3-113.1,0s-31.3,81.9,0,113.1s81.9,31.3,113.1,0l0,0
	C187.8,125.3,187.8,74.7,156.6,43.4z M110,140c0,5.5-4.5,10-10,10s-10-4.5-10-10v-30H60c-5.5,0-10-4.5-10-10s4.5-10,10-10h30V60
	c0-5.5,4.5-10,10-10s10,4.5,10,10v30h30c5.5,0,10,4.5,10,10s-4.5,10-10,10h-30V140z"/>
</svg>
