<?xml version="1.0" standalone="no"?><!DOCTYPE svg PUBLIC "-//W3C//DTD SVG 1.1//EN" "http://www.w3.org/Graphics/SVG/1.1/DTD/svg11.dtd"><svg t="1597632285818" class="icon" viewBox="0 0 1024 1024" version="1.1" xmlns="http://www.w3.org/2000/svg" p-id="1800" xmlns:xlink="http://www.w3.org/1999/xlink" width="200" height="200"><defs><style type="text/css"></style></defs><path d="M791.539 213.168 791.539 213.168C738.756 106.003 627.838 36.924 508.184 36.924c-145.852 0-274.218 102.381-307.212 244.109C87.426 293.795 0 391.565 0 506.071c0 119.987 96.203 221.482 216.275 226.411l69.639 0 0 254.594 310.868 0 0.002-0.001 141.304-141.304L738.088 732.482l25.312 0c143.015 0 260.599-117.48 260.599-260.494C1024 339.868 922.706 227.221 791.539 213.168zM596.782 901.598l0-55.826 54.487 0L596.782 901.598zM681.567 478.383l0 310.869L540.261 789.252l0 141.304L342.435 930.556 342.435 478.382l339.13 0 0 0.001L681.567 478.383zM763.415 676.291l-25.327 0L738.088 421.859 285.913 421.859l0 254.438c-30.569 0.002-63.433 0.003-63.787-0.006-91.624-2.382-165.894-78.495-165.894-170.221 0-92.752 75.749-169.206 168.461-170.227 13.785-0.138 25.349-10.129 27.488-23.762C271.836 187.011 381.573 93.17 508.184 93.17c104.212 0 197.978 61.959 238.865 157.808 4.236 9.963 13.951 16.642 24.728 17.083 108.689 4.374 195.991 95.119 195.991 203.926C967.768 584.673 876.1 676.291 763.415 676.291z" p-id="1801"></path><path d="M398.956 563.164l226.087 0 0 56.522-226.087 0 0-56.522Z" p-id="1802"></path><path d="M398.956 676.206l141.304 0 0 56.522-141.304 0 0-56.522Z" p-id="1803"></path></svg>