<svg width="24" height="24" viewBox="0 0 24 24" fill="none" xmlns="http://www.w3.org/2000/svg">
  <!-- 打开状态的文件夹图标 -->
  <path d="M10 4H4C2.9 4 2 4.9 2 6V18C2 19.1 2.9 20 4 20H20C21.1 20 22 19.1 22 18V8C22 6.9 21.1 6 20 6H12L10 4Z" 
        fill="#81C784" 
        stroke="#4CAF50" 
        stroke-width="1"/>
  <!-- 打开的文件夹内容 -->
  <path d="M3 8V18C3 18.6 3.4 19 4 19H20C20.6 19 21 18.6 21 18V9H3V8Z" 
        fill="#A5D6A7" 
        opacity="0.7"/>
  <!-- 文件夹标签 -->
  <path d="M10 4H4C2.9 4 2 4.9 2 6V8H22V8C22 6.9 21.1 6 20 6H12L10 4Z" 
        fill="#C8E6C9" 
        opacity="0.8"/>
</svg>