<?xml version="1.0" encoding="utf-8"?>
<!-- Generator: Adobe Illustrator 24.1.1, SVG Export Plug-In . SVG Version: 6.00 Build 0)  -->
<svg version="1.1" id="图层_1" xmlns="http://www.w3.org/2000/svg" xmlns:xlink="http://www.w3.org/1999/xlink" x="0px" y="0px"
	 viewBox="0 0 200 200" style="enable-background:new 0 0 200 200;" xml:space="preserve">
<style type="text/css">
	.st0{fill:#2B313D;}
</style>
<path class="st0" d="M16.3,100c0-46.2,37.5-83.7,83.7-83.7s83.7,37.5,83.7,83.7s-37.5,83.7-83.7,83.7S16.3,146.2,16.3,100L16.3,100z
	 M32.3,100c0,37.4,30.3,67.7,67.7,67.7s67.7-30.3,67.7-67.7S137.4,32.3,100,32.3S32.3,62.6,32.3,100L32.3,100z M83.2,130l0.1-0.1
	l32.1-30l-32-29.8c-3.2-3-3.4-7.9-0.5-11.2l0.1-0.1c3-3.2,7.9-3.4,11.2-0.5l0.1,0.1L132.6,94c3.4,3.1,3.4,8.4,0.2,11.6l-0.1,0.1
	l-38.4,35.9c-3.2,3-8.3,2.8-11.3-0.4C80,138,80.1,133,83.2,130L83.2,130z"/>
</svg>
